
<svg id="Layer_1" data-name="Layer 1" xmlns="http://www.w3.org/2000/svg" viewBox="0 0 122.88 74.52"><defs><style>.cls-1{fill-rule:evenodd;}</style></defs><title>clients</title><path class="cls-1" d="M29.18,44.74c.23-1.88-5.33-9-6.35-12.47-2.18-3.46-2.95-9-.57-12.62.94-1.45.53-2.71.53-4.72,0-19.9,34.88-19.91,34.88,0,0,2.52-.57,3.11.79,5.1,2.28,3.3,1.11,9.18-.82,12.25C56.4,35.89,50.57,42.7,51,44.75c.37,10.21-21.85,9.87-21.79,0ZM41.9,62.41h1.22a2,2,0,0,0,2-2V57.15a2,2,0,0,0-2-2H35.86a2,2,0,0,0-2,2V60.4a2,2,0,0,0,2,2H37.1L34.72,74.52h9.47L41.9,62.41ZM0,74.52C.94,62.3-1.45,62.83,8.77,59A78.79,78.79,0,0,0,23.1,51.74l8.78,22.78ZM56.26,50.7A58,58,0,0,0,69.5,57.32C79.05,60.5,79,60.94,79,74.52H47.2L56.26,50.7ZM91.49,64.78h1a1.62,1.62,0,0,0,1.62-1.61V60.56a1.63,1.63,0,0,0-1.62-1.62H86.63A1.62,1.62,0,0,0,85,60.56v2.61a1.62,1.62,0,0,0,1.61,1.61h1l-1.91,9.74h7.61l-1.84-9.74ZM81.27,50.58c.18-1.51-4.29-7.26-5.11-10-1.75-2.78-2.37-7.21-.46-10.14.76-1.17.43-2.18.43-3.8,0-16,28-16,28,0,0,2-.46,2.5.63,4.1,1.83,2.66.89,7.38-.66,9.85-1,2.9-5.68,8.37-5.36,10,.3,8.21-17.56,7.94-17.51,0ZM103,55.38a59,59,0,0,0,12.24,5.31c7.68,2.56,7.65,2.91,7.6,13.83H95.75L103,55.38Z"/></svg>