
<?xml version="1.0" standalone="no"?>
<!DOCTYPE svg PUBLIC "-//W3C//DTD SVG 20010904//EN"
 "http://www.w3.org/TR/2001/REC-SVG-20010904/DTD/svg10.dtd">
<svg fill="#fff"  version="1.0" xmlns="http://www.w3.org/2000/svg"
 width="512.000000pt" height="512.000000pt" viewBox="0 0 512.000000 512.000000"
 preserveAspectRatio="xMidYMid meet">

<g transform="translate(0.000000,512.000000) scale(0.100000,-0.100000)"
fill="#fff" stroke="none">
<path fill="#fff"  d="M1036 5100 c-58 -23 -109 -69 -139 -125 l-22 -40 -5 -1800 -5 -1800
-265 -5 -265 -5 -65 -31 c-109 -53 -184 -143 -214 -259 -23 -86 -23 -574 0
-660 48 -185 195 -327 378 -365 36 -7 583 -10 1796 -7 1613 3 1750 4 1815 20
146 36 213 60 320 113 308 152 549 429 655 755 101 309 76 678 -67 964 -144
288 -405 527 -695 635 l-58 21 0 1202 0 1202 -24 51 c-13 27 -42 66 -66 87
-84 72 27 67 -1579 67 -1402 -1 -1448 -2 -1495 -20z m2950 -146 c68 -32 64 48
64 -1239 0 -641 -1 -1165 -2 -1165 -2 0 -30 5 -63 10 -33 6 -118 10 -190 11
-352 1 -676 -137 -920 -392 -227 -238 -342 -506 -361 -842 -15 -266 73 -564
237 -797 72 -103 228 -253 338 -325 l91 -60 -1141 -3 c-628 -1 -1144 0 -1147
3 -2 2 8 18 22 36 31 37 61 93 84 158 15 42 17 243 22 2296 4 1845 7 2254 18
2273 31 53 -32 51 1495 52 1293 0 1422 -1 1453 -16z m-16 -2545 c351 -49 676
-285 842 -613 90 -179 124 -343 115 -562 -8 -208 -58 -374 -165 -544 -167
-264 -419 -442 -726 -512 -119 -27 -345 -29 -457 -4 -232 51 -406 143 -572
305 -171 167 -285 378 -328 611 -17 94 -14 329 5 420 78 359 297 640 625 800
206 102 417 133 661 99z m-3102 -1611 l-3 -383 -28 -60 c-113 -243 -440 -272
-587 -53 -55 82 -62 141 -58 448 3 239 4 258 25 295 28 52 68 89 123 114 41
19 65 21 288 21 l243 0 -3 -382z"/>
<path fill="#fff" d="M1353 4568 c-46 -22 -49 -103 -4 -127 28 -15 2344 -15 2372 0 48 25
44 105 -7 128 -34 15 -2329 15 -2361 -1z"/>
<path  fill="#fff" d="M1374 4023 c-55 -11 -76 -86 -35 -126 l22 -22 833 0 c806 0 835 1
855 19 23 21 28 65 11 96 -6 11 -27 24 -48 30 -36 9 -1588 13 -1638 3z"/>
<path fill="#fff" d="M3285 4020 c-56 -18 -73 -76 -36 -121 19 -24 20 -24 241 -24 l222 0
24 28 c30 35 30 59 0 94 l-24 28 -199 2 c-109 1 -211 -2 -228 -7z"/>
<path fill="#fff" d="M1352 3463 c-7 -3 -19 -18 -28 -35 -19 -37 -5 -80 32 -97 27 -12
2327 -17 2359 -5 24 10 46 60 39 89 -14 58 56 55 -1219 54 -643 0 -1176 -3
-1183 -6z"/>
<path fill="#fff" d="M1365 2911 c-52 -22 -66 -90 -26 -123 21 -16 44 -18 242 -18 206 0
220 1 239 20 27 27 26 81 -1 106 -19 17 -40 19 -228 21 -113 1 -215 -2 -226
-6z"/>
<path fill="#fff"  d="M2050 2913 c-51 -19 -68 -85 -30 -123 20 -20 33 -20 859 -20 l840 0
20 26 c12 15 21 33 21 40 0 26 -23 62 -47 73 -25 11 -1632 15 -1663 4z"/>
<path fill="#fff" d="M1335 2340 c-25 -28 -23 -76 4 -103 l22 -22 582 -3 c320 -1 592 0
605 3 60 15 81 83 39 123 l-23 22 -606 0 c-593 0 -605 0 -623 -20z"/>
<path d="M1349 1797 c-31 -24 -42 -56 -28 -88 6 -17 20 -34 30 -39 10 -6 202
-10 477 -10 450 0 460 0 486 21 34 27 35 71 1 104 l-24 25 -463 0 c-348 -1
-467 -4 -479 -13z"/>
<path d="M1365 1250 c-49 -19 -64 -82 -30 -120 18 -20 30 -20 491 -20 l473 0
21 22 c37 40 22 98 -31 117 -38 13 -892 14 -924 1z"/>
<path d="M1347 689 c-46 -27 -39 -108 11 -128 20 -8 163 -11 486 -9 l458 3 19
24 c26 32 24 73 -4 99 -23 22 -24 22 -488 22 -305 -1 -470 -4 -482 -11z"/>
<path d="M3720 2135 c-8 -2 -49 -9 -90 -16 -115 -20 -157 -72 -108 -134 23
-30 38 -30 193 -5 174 29 379 -32 528 -155 162 -134 250 -322 250 -535 0 -124
-16 -195 -68 -305 -165 -345 -584 -491 -930 -325 -231 111 -376 329 -392 586
-13 207 56 384 210 541 57 58 70 78 70 103 0 41 -32 73 -72 72 -96 -3 -284
-263 -336 -462 -23 -91 -30 -253 -16 -346 46 -280 230 -523 486 -639 125 -57
183 -69 345 -69 185 -1 304 30 444 114 428 259 543 818 252 1224 -149 208
-393 340 -650 351 -56 2 -108 2 -116 0z"/>
<path d="M3764 1798 c-28 -13 -44 -49 -44 -99 0 -29 -5 -41 -17 -46 -72 -25
-122 -104 -123 -191 0 -103 47 -161 179 -216 97 -41 117 -56 125 -96 10 -51
-11 -88 -56 -100 -53 -15 -84 -7 -137 35 -50 40 -73 43 -101 15 -58 -58 -16
-142 91 -180 34 -12 37 -16 41 -62 6 -60 30 -88 75 -88 48 0 73 29 73 85 0 41
3 46 38 64 81 42 123 115 123 215 0 128 -52 192 -198 246 -74 27 -103 52 -103
89 0 59 49 73 153 46 32 -8 66 -15 77 -15 22 0 60 45 60 72 0 30 -54 74 -105
87 l-45 11 0 49 c0 42 -4 53 -26 70 -29 23 -48 25 -80 9z"/>
</g>
</svg>
