
<?xml version="1.0" encoding="UTF-8"?>
<svg version="1.1" viewBox="0 0 2048 2048" width="1280" height="1280" xmlns="http://www.w3.org/2000/svg" fill="#fff"  >
<path transform="translate(1567,447)" d="m0 0h253l15 2 10 6 7 8 4 10v1350h159l12 2 10 6 7 8 4 6v184h-2l-6 9-7 6-7 4h-1372l-3-3-9-6-7-10-3-11 2-13 6-10 8-7 9-4 6-1h1320v-95h-1219l-11-4-8-7-5-8-3-12 2-12 6-10 8-7 9-4 7-1h126v-927h-190v230l-1 263-4 10-7 9-12 6-4 1h-11l-11-4-8-7-5-8-2-5-1-8v-522l2-8 4-8 5-6 10-6 11-2h253l15 2 10 6 7 8 3 6 1 4v966h127v-1154l2-8 4-8 5-5 8-6 5-2 8-1h253l15 2 10 6 7 8 3 6 1 4v1158h127v-1345l2-9 4-8 5-5 8-6 5-2zm34 65-1 19v1292l189 1 2-1v-1311zm-448 192-1 19v1100l189 1 2-1v-1119z"/>
<path transform="translate(1397)" d="m0 0h309l10 7 7 7 4 8 1 3 1 78-1 224-4 9-4 6-7 6-7 3-5 1h-11l-11-4-9-8-6-12-1-8-1-208-4 4h-2l-2 4-8 7-7 7-8 7-7 7-8 7-3 3h-2v2l-8 7-10 9-13 12-8 7-14 12-10 9-7 6h-2v2l-11 9-15 13-11 9-14 12-11 9-12 10-11 9-13 10-16 13-10 8-13 10-18 14-13 10-36 27-19 14-14 10-17 12-40 28-51 34-20 13-22 14-47 29-24 14-22 13-27 15-16 9-28 15-27 14-35 18-34 16-28 13-44 19-32 13-34 13-36 13-48 16-48 14-64 16-49 10-48 8-48 6-47 4h-21l-10-4-9-8-6-12-1-8 2-11 5-10 8-7 10-4 19-2 37-3 43-5 49-8 49-10 48-12 42-12 38-12 41-14 37-14 42-17 30-13 27-12 63-30 19-10 22-11 22-12 24-13 25-14 39-23 25-15 40-25 17-11 23-15 30-20 32-22 20-14 36-26 38-28 13-10 21-16 14-11 15-12 28-22 17-14 22-18 14-12 10-8 14-12 15-13 10-9 11-9 11-10 8-7 12-11 8-7 24-22 13-12 14-13-213-1-11-4-9-8-6-12-1-7 2-12 5-10 8-7z"/>
<path transform="translate(342,1343)" d="m0 0h21l28 2 32 5 28 7 24 8 26 11 22 11 20 12 11 8 14 10 13 11 10 9 13 12 14 15 9 11 15 20 11 17 14 25 9 19 10 26 9 31 5 25 3 22 1 12v47l-3 27-4 23-7 28-10 29-11 25-13 24-10 16-10 14-10 13-12 14-7 8h-2l-2 4-8 8-8 7-10 9-16 12-19 13-15 9-27 14-24 10-27 9-25 6-27 5-10 2h-79l-1-2-37-7-25-7-20-7-21-9-16-8-20-11-21-14-13-10-11-9-12-11-11-10-7-8-7-7-8-10-11-14-16-24-12-21-12-25-10-27-7-24-6-28-3-18-1-2v-77l2-8 5-29 8-30 10-28 11-24 10-19 8-13 8-12 8-11 11-14 9-11h2l2-4 22-22 11-9 15-12 19-13 20-12 19-10 26-11 27-9 23-6 30-5 19-2zm5 65-20 1-24 3-27 6-30 10-18 8-23 12-15 10-11 8-16 13-15 14-7 7-7 8-13 16-14 21-11 19-11 24-11 33-6 27-3 26-1 17v13l2 24 4 26 6 24 9 26 12 26 11 19 11 16 11 14 9 10 7 8 12 12 11 9 14 11 15 10 15 9 22 11 26 10 28 8 24 4 21 2h38l25-3 25-5 29-9 22-9 19-10 15-9 12-8 13-10 14-12 23-23 11-14 10-13 12-20 12-23 10-25 7-23 5-25 3-27v-38l-3-26-5-25-7-24-10-25-8-16-10-18-8-12-12-16-9-10-7-8-16-16-11-9-13-10-20-13-22-12-23-10-24-8-21-5-24-4-27-2z"/>
<path transform="translate(350,1471)" d="m0 0 10 1 9 4 8 7 5 8 2 5 1 10h8l19 5 18 8 12 8 10 8 8 8 10 15 5 11 4 14 1 5v19l-6 12-4 5-10 6-7 2h-12l-10-4-10-9-4-8-3-17-5-9-7-6-16-7-1 2v92l16 3 18 7 15 9 14 12 9 10 10 15 6 13 5 16 2 11v28l-3 15-7 19-10 17-12 14-13 11-16 9-14 6-16 4h-4l-1 11-6 12-7 7-9 4-4 1h-13l-10-4-9-8-6-12-2-9-14-3-16-5-17-8-14-10-11-10-11-15-7-16-4-15-1-13 2-11 4-8 5-5 8-6 6-2h16l9 4 8 7 5 8 2 6 2 13 5 9 9 7 11 5 4 1-1-94-17-4-15-6-14-8-11-9-6-5-9-11-7-10-8-16-5-15-2-10-1-10v-10l2-18 4-14 7-16 6-10 9-12 11-11 11-8 14-8 16-6 7-2h9v-7l5-14 6-7 10-6zm-33 102-11 7-7 6-7 11-3 11v16l3 10 6 10 8 8 11 7h2v-86zm68 160-1 9v76l5-1 10-6 8-8 6-12 2-7v-17l-5-13-7-10-11-8z"/>
<path transform="translate(223,991)" d="m0 0h253l15 2 10 6 7 8 3 6 1 4v256l-4 10-9 10-8 4-6 2h-10l-11-4-6-4-6-8-4-9-1-7v-211h-190l-1 217-4 10-6 8-8 5-9 3h-11l-10-4-7-5-5-6-4-10-1-7v-245l2-9 4-8 3-4h2v-2l10-6z"/>
<path transform="translate(1709,1)" d="m0 0"/>
</svg>
